<svg xmlns="http://www.w3.org/2000/svg" xmlns:xlink="http://www.w3.org/1999/xlink" width="1000" zoomAndPan="magnify" viewBox="0 0 750 119.999999" height="160" preserveAspectRatio="xMidYMid meet" version="1.0"><defs><g/><clipPath id="66efaa8ced"><path d="M 5 34.53125 L 23 34.53125 L 23 42 L 5 42 Z M 5 34.53125 " clip-rule="nonzero"/></clipPath><clipPath id="457e5fed31"><path d="M 19 34.53125 L 54 34.53125 L 54 85 L 19 85 Z M 19 34.53125 " clip-rule="nonzero"/></clipPath><clipPath id="45574de905"><path d="M 3.75 71 L 25 71 L 25 85.53125 L 3.75 85.53125 Z M 3.75 71 " clip-rule="nonzero"/></clipPath><clipPath id="909dab4057"><path d="M 259.015625 33.523438 L 737.960938 33.523438 L 737.960938 88.273438 L 259.015625 88.273438 Z M 259.015625 33.523438 " clip-rule="nonzero"/></clipPath></defs><g clip-path="url(#66efaa8ced)"><path fill="#f8cf40" d="M 18.433594 36.398438 C 18.921875 36.242188 20.945312 35.910156 22.082031 35.75 C 22.246094 35.507812 22.246094 34.695312 22.082031 34.53125 C 20.300781 34.53125 16.8125 34.777344 13.972656 34.777344 C 10.078125 34.777344 7.078125 34.53125 5.132812 34.53125 C 4.96875 34.777344 4.96875 35.507812 5.132812 35.75 C 5.941406 35.832031 7.566406 35.910156 8.539062 36.15625 C 10.117188 36.535156 13.261719 37.726562 13.929688 41.242188 C 14.105469 39.925781 14.972656 37.503906 18.433594 36.398438 Z M 18.433594 36.398438 " fill-opacity="1" fill-rule="nonzero"/></g><g clip-path="url(#457e5fed31)"><path fill="#f8cf40" d="M 53.714844 83.523438 C 49.902344 83.441406 48.359375 83.195312 46.984375 82.546875 C 46.171875 82.144531 45.523438 81.738281 44.550781 81.007812 C 39.847656 77.355469 24.355469 60.082031 23.378906 57.890625 L 23.378906 57.648438 C 27.761719 53.269531 33.679688 46.699219 38.871094 41.023438 C 42.359375 37.128906 43.738281 36.316406 48.117188 35.75 C 48.441406 35.507812 48.359375 34.695312 48.117188 34.535156 C 45.847656 34.695312 43.820312 34.777344 39.601562 34.777344 C 36.601562 34.777344 34.25 34.53125 31.734375 34.53125 C 31.492188 34.695312 31.410156 35.585938 31.652344 35.75 C 33.4375 35.992188 34.410156 36.238281 35.382812 36.480469 C 36.683594 36.804688 37.167969 37.289062 37.167969 37.859375 C 37.167969 38.832031 36.683594 39.964844 35.222656 41.832031 C 31.003906 47.121094 24.875 53.902344 20.65625 57.183594 C 20.78125 58.886719 20.222656 60.378906 19.507812 61.605469 C 24.429688 67.734375 34.597656 79.214844 37.816406 82.058594 C 39.765625 83.683594 40.820312 84.167969 41.628906 84.410156 C 43.332031 84.980469 50.550781 84.980469 53.550781 84.734375 C 53.875 84.65625 53.957031 83.601562 53.714844 83.523438 Z M 53.714844 83.523438 " fill-opacity="1" fill-rule="nonzero"/></g><g clip-path="url(#45574de905)"><path fill="#f8cf40" d="M 24.089844 84.023438 C 21.597656 83.640625 20.542969 83.542969 19.199219 83.160156 C 16.449219 82.59375 14.605469 78.285156 14.597656 74.238281 C 14.597656 74.238281 14.527344 72.09375 14.3125 71.945312 C 14.296875 72.082031 14.054688 82.253906 7.792969 83.449219 L 4.054688 84.023438 C 3.863281 84.214844 3.765625 85.269531 4.054688 85.460938 C 5.203125 85.460938 9.613281 85.171875 14.597656 85.171875 C 19.105469 85.171875 22.460938 85.460938 23.992188 85.460938 C 24.183594 85.367188 24.375 84.214844 24.089844 84.023438 Z M 24.089844 84.023438 " fill-opacity="1" fill-rule="nonzero"/></g><path fill="#f8cf40" d="M 20.144531 56.144531 C 20.09375 55.738281 20.023438 55.335938 19.960938 54.929688 C 19.859375 54.222656 19.820312 53.507812 19.867188 52.792969 C 19.875 52.632812 19.894531 52.472656 19.808594 52.324219 C 19.753906 52.230469 19.625 52.183594 19.53125 52.242188 C 19.472656 52.277344 19.414062 52.320312 19.363281 52.371094 C 19.039062 52.679688 18.746094 53.011719 18.523438 53.40625 C 18.21875 53.949219 17.910156 54.492188 17.59375 55.03125 C 17.21875 55.667969 17 56.355469 16.867188 57.082031 C 16.714844 57.914062 16.703125 58.75 16.664062 59.585938 C 16.660156 59.691406 16.644531 59.796875 16.636719 59.902344 C 16.621094 60.152344 16.710938 60.410156 16.601562 60.652344 C 16.628906 61.136719 16.613281 61.613281 16.542969 62.089844 C 16.597656 62.136719 16.609375 62.191406 16.589844 62.257812 C 16.59375 62.863281 16.59375 63.464844 16.605469 64.070312 C 16.609375 64.183594 16.570312 64.28125 16.527344 64.375 C 16.234375 64.996094 16.144531 65.671875 16 66.328125 C 15.859375 66.972656 15.695312 67.605469 15.464844 68.222656 C 15.464844 68.503906 15.378906 68.761719 15.253906 69.101562 C 15.148438 68.738281 15.242188 68.476562 15.28125 68.214844 C 15.308594 67.789062 15.316406 67.359375 15.363281 66.9375 C 15.496094 65.839844 15.535156 64.734375 15.539062 63.628906 C 15.539062 62.8125 15.546875 61.992188 15.488281 61.171875 C 15.453125 60.65625 15.429688 60.140625 15.375 59.628906 C 15.335938 59.265625 15.390625 58.914062 15.4375 58.5625 C 15.53125 57.855469 15.613281 57.148438 15.722656 56.449219 C 15.851562 55.621094 15.921875 54.792969 15.980469 53.964844 C 15.980469 53.964844 15.980469 53.964844 15.980469 53.96875 C 16.226562 53.375 16.515625 52.617188 16.765625 52.027344 C 17.007812 51.445312 17.269531 50.867188 17.703125 50.386719 C 17.785156 50.289062 17.84375 50.214844 17.984375 50.222656 C 18.335938 50.25 18.621094 50.089844 18.855469 49.855469 C 19.121094 49.589844 19.261719 49.265625 19.191406 48.878906 C 19.136719 48.597656 19 48.457031 18.714844 48.421875 C 18.273438 48.363281 17.957031 48.585938 17.710938 48.921875 C 17.601562 49.070312 17.519531 49.246094 17.441406 49.417969 C 17.347656 49.621094 17.273438 49.828125 17.359375 50.0625 C 17.421875 50.21875 17.359375 50.355469 17.28125 50.496094 C 17 50.984375 16.730469 51.480469 16.453125 51.976562 C 16.445312 52.082031 16.402344 52.175781 16.332031 52.257812 C 16.253906 52.449219 16.171875 52.636719 16.089844 52.828125 C 16.082031 52.851562 16.074219 52.871094 16.066406 52.894531 C 16.097656 52.5 16.128906 52.109375 16.160156 51.714844 C 16.167969 51.644531 16.1875 51.574219 16.203125 51.507812 C 16.210938 51.398438 16.21875 51.292969 16.226562 51.1875 C 16.234375 50.96875 16.242188 50.757812 16.253906 50.542969 C 16.238281 50.484375 16.242188 50.054688 16.234375 49.582031 C 16.257812 49.53125 16.285156 49.484375 16.308594 49.4375 C 16.378906 49.296875 16.453125 49.175781 16.507812 49.027344 C 16.601562 48.753906 16.660156 48.46875 16.730469 48.191406 C 16.734375 48.167969 16.742188 48.140625 16.75 48.117188 C 17.007812 47.179688 17.113281 46.195312 17.070312 45.21875 C 17.027344 44.246094 16.839844 43.273438 16.503906 42.359375 C 16.347656 41.933594 16.167969 41.535156 15.972656 41.132812 C 15.867188 40.917969 15.773438 40.703125 15.6875 40.480469 C 15.648438 40.378906 15.574219 40.113281 15.441406 40.113281 C 15.324219 40.113281 15.214844 40.351562 15.171875 40.429688 C 15.035156 40.691406 14.964844 40.980469 14.859375 41.25 C 14.6875 41.683594 14.542969 42.128906 14.421875 42.578125 C 14.179688 43.472656 14.039062 44.398438 14.027344 45.328125 C 14.015625 46.070312 14.234375 46.796875 14.558594 47.464844 C 14.714844 47.78125 14.894531 48.085938 15.085938 48.382812 C 15.175781 48.527344 15.257812 48.671875 15.359375 48.808594 C 15.480469 48.960938 15.605469 49.113281 15.714844 49.273438 C 15.824219 49.4375 15.90625 49.613281 15.960938 49.796875 C 15.957031 49.910156 15.953125 50.019531 15.949219 50.132812 C 15.890625 51.46875 15.804688 52.804688 15.753906 54.140625 C 15.71875 55.046875 15.628906 55.953125 15.480469 56.851562 C 15.46875 56.921875 15.4375 56.988281 15.417969 57.054688 C 15.40625 57.160156 15.402344 57.265625 15.386719 57.367188 C 15.371094 57.472656 15.398438 57.59375 15.265625 57.710938 C 15.15625 57.476562 15.179688 57.261719 15.140625 57.0625 C 15.085938 57.039062 15.035156 57.007812 15.082031 56.929688 C 15.054688 56.21875 14.933594 55.519531 14.8125 54.816406 C 14.6875 54.117188 14.554688 53.421875 14.425781 52.722656 C 14.398438 52.582031 14.378906 52.441406 14.34375 52.304688 C 14.207031 51.789062 14.0625 51.277344 13.929688 50.765625 C 13.78125 50.210938 13.566406 49.6875 13.3125 49.175781 C 13.058594 48.664062 12.925781 48.109375 12.765625 47.566406 C 12.75 47.503906 12.773438 47.425781 12.777344 47.355469 C 12.761719 47.320312 12.761719 47.289062 12.78125 47.253906 C 12.746094 47.148438 12.734375 47.039062 12.777344 46.929688 C 12.777344 46.820312 12.777344 46.714844 12.777344 46.605469 C 12.78125 46.160156 12.78125 45.714844 12.789062 45.273438 C 12.789062 45.203125 12.75 44.144531 12.730469 43.769531 C 12.679688 42.75 12.359375 41.816406 11.789062 40.964844 C 11.589844 40.667969 11.351562 40.402344 11.0625 40.1875 C 10.613281 39.859375 10.253906 39.441406 9.878906 39.035156 C 9.574219 38.710938 9.28125 38.375 8.976562 38.046875 C 8.921875 37.984375 8.839844 37.9375 8.761719 37.898438 C 8.714844 37.871094 8.660156 37.886719 8.625 37.941406 C 8.554688 38.050781 8.550781 38.175781 8.539062 38.300781 C 8.46875 38.992188 8.511719 39.6875 8.566406 40.378906 C 8.601562 40.785156 8.648438 41.191406 8.710938 41.597656 C 8.871094 42.667969 9.285156 43.652344 9.691406 44.640625 C 9.808594 44.929688 9.996094 45.164062 10.191406 45.390625 C 10.796875 46.09375 11.449219 46.757812 12.011719 47.496094 C 12.042969 47.539062 12.066406 47.59375 12.109375 47.621094 C 12.480469 47.839844 12.589844 48.210938 12.71875 48.585938 C 12.8125 48.851562 12.917969 49.121094 13.121094 49.332031 C 13.25 49.464844 13.300781 49.640625 13.363281 49.808594 C 13.757812 50.828125 13.992188 51.886719 14.179688 52.960938 C 14.289062 53.574219 14.394531 54.191406 14.492188 54.808594 C 14.515625 54.945312 14.511719 55.089844 14.519531 55.230469 C 14.574219 55.273438 14.585938 55.328125 14.566406 55.390625 C 14.675781 55.714844 14.679688 56.054688 14.710938 56.390625 C 14.832031 57.589844 14.9375 58.789062 15.042969 59.988281 C 15.0625 60.183594 15.054688 60.378906 15.054688 60.574219 C 15.070312 60.816406 15.085938 61.058594 15.097656 61.300781 C 15.097656 61.347656 15.074219 61.402344 15.011719 61.390625 C 14.984375 61.386719 14.949219 61.351562 14.941406 61.320312 C 14.882812 61.03125 14.824219 60.742188 14.765625 60.453125 C 14.539062 59.855469 14.289062 59.265625 14.085938 58.660156 C 13.917969 58.164062 13.691406 57.699219 13.390625 57.285156 C 12.828125 56.515625 12.445312 55.652344 12.042969 54.800781 C 11.796875 54.289062 11.582031 53.761719 11.34375 53.246094 C 11.246094 53.039062 11.148438 52.820312 11.011719 52.640625 C 10.566406 52.058594 10.394531 51.363281 10.148438 50.699219 C 10.101562 50.566406 10.167969 50.457031 10.1875 50.339844 C 10.261719 49.898438 10.183594 49.492188 9.902344 49.128906 C 9.769531 48.953125 9.597656 48.894531 9.390625 48.910156 C 9.050781 48.9375 8.773438 49.105469 8.574219 49.367188 C 8.335938 49.675781 8.417969 50.011719 8.601562 50.316406 C 8.785156 50.625 9.027344 50.886719 9.34375 51.070312 C 9.414062 51.074219 9.480469 51.074219 9.550781 51.078125 C 9.628906 51.035156 9.707031 50.992188 9.785156 50.949219 C 9.875 50.894531 9.957031 50.902344 9.996094 51.007812 C 10.066406 51.1875 10.152344 51.371094 10.1875 51.5625 C 10.261719 51.9375 10.433594 52.269531 10.632812 52.585938 C 10.917969 53.042969 11.132812 53.53125 11.34375 54.023438 C 11.886719 55.300781 12.445312 56.570312 13.25 57.714844 C 13.484375 58.046875 13.660156 58.417969 13.785156 58.816406 C 13.984375 59.425781 14.28125 60 14.457031 60.621094 C 14.667969 61.375 14.898438 62.125 15.085938 62.886719 C 15.195312 63.320312 15.148438 63.777344 15.132812 64.222656 C 15.066406 65.898438 14.976562 67.574219 14.746094 69.238281 C 14.644531 69.996094 14.546875 70.761719 14.332031 71.5 C 14.316406 71.636719 14.304688 71.777344 14.28125 71.914062 C 14.269531 71.996094 14.25 72.089844 14.113281 72.082031 C 14.089844 71.929688 14.070312 71.777344 14.046875 71.621094 C 13.917969 71.066406 13.925781 70.488281 13.828125 69.929688 C 13.628906 68.789062 13.511719 67.632812 13.128906 66.53125 C 13.09375 66.433594 13.097656 66.320312 13.082031 66.214844 C 13.03125 66.175781 13.023438 66.125 13.03125 66.066406 C 13.023438 65.820312 13.011719 65.570312 13.003906 65.320312 C 12.988281 64.609375 12.867188 63.902344 12.828125 63.195312 C 12.78125 62.28125 12.597656 61.394531 12.417969 60.503906 C 12.21875 59.546875 11.777344 58.691406 11.289062 57.855469 C 11.199219 57.707031 11.070312 57.578125 10.941406 57.453125 C 10.398438 56.921875 9.964844 56.316406 9.625 55.640625 C 9.371094 55.132812 9.023438 54.671875 8.816406 54.132812 C 8.789062 54.070312 8.742188 54.007812 8.660156 54.007812 C 8.550781 54.011719 8.519531 54.105469 8.484375 54.183594 C 8.46875 54.234375 8.46875 54.289062 8.460938 54.34375 C 8.441406 54.609375 8.421875 54.875 8.402344 55.144531 C 8.390625 55.300781 8.375 55.460938 8.359375 55.621094 C 8.398438 55.695312 8.398438 55.765625 8.355469 55.835938 C 8.335938 56.386719 8.3125 56.941406 8.292969 57.492188 C 8.28125 57.886719 8.34375 58.273438 8.417969 58.660156 C 8.578125 59.5 8.851562 60.3125 9.132812 61.117188 C 9.304688 61.625 9.597656 62.078125 9.898438 62.519531 C 10.148438 62.886719 10.390625 63.261719 10.601562 63.652344 C 10.730469 63.886719 10.867188 64.128906 11.054688 64.3125 C 11.460938 64.703125 11.710938 65.199219 12.003906 65.664062 C 12.191406 65.964844 12.355469 66.285156 12.578125 66.5625 C 12.867188 66.925781 13 67.347656 13.089844 67.785156 C 13.222656 68.433594 13.363281 69.078125 13.464844 69.726562 C 13.566406 70.378906 13.585938 71.042969 13.710938 71.691406 C 13.859375 72.449219 13.941406 73.363281 13.816406 74.617188 C 13.777344 75.007812 13.757812 75.023438 13.699219 75.410156 C 13.546875 76.414062 13.453125 77.421875 13.300781 78.425781 C 13.285156 78.511719 13.277344 78.609375 13.332031 78.679688 C 13.378906 78.734375 13.453125 78.753906 13.523438 78.765625 C 13.570312 78.777344 13.617188 78.785156 13.660156 78.769531 C 13.753906 78.742188 13.726562 78.613281 13.726562 78.535156 C 13.730469 78.414062 13.808594 78.234375 13.792969 78.128906 C 13.773438 77.984375 13.773438 77.839844 13.816406 77.699219 C 13.816406 76.949219 13.976562 76.21875 14.078125 75.480469 C 14.128906 75.128906 14.230469 75.277344 14.226562 74.929688 C 14.222656 74.671875 14.574219 72.554688 14.601562 72.417969 C 14.667969 72.066406 14.757812 71.722656 14.816406 71.371094 C 14.933594 70.644531 15.140625 69.945312 15.410156 69.265625 C 15.667969 68.617188 15.828125 67.9375 16.046875 67.273438 C 16.253906 66.648438 16.367188 65.996094 16.53125 65.359375 C 16.578125 65.167969 16.644531 64.984375 16.71875 64.804688 C 16.820312 64.554688 16.933594 64.316406 16.972656 64.046875 C 17.03125 63.675781 17.285156 63.410156 17.515625 63.136719 C 17.683594 62.933594 17.886719 62.757812 18.082031 62.574219 C 18.425781 62.257812 18.683594 61.871094 18.945312 61.488281 C 19.53125 60.640625 19.957031 59.726562 20.117188 58.699219 C 20.25 57.855469 20.253906 57 20.144531 56.144531 Z M 20.144531 56.144531 " fill-opacity="1" fill-rule="nonzero"/><g fill="#f8cf40" fill-opacity="1"><g transform="translate(55.717945, 85.806288)"><g><path d="M 12.8125 -5.625 C 12.8125 -4.238281 12.976562 -3.285156 13.3125 -2.765625 C 13.644531 -2.242188 14.273438 -1.820312 15.203125 -1.5 L 15.203125 0 L 4.203125 0 L 4.203125 -1.5 C 5.148438 -1.84375 5.800781 -2.28125 6.15625 -2.8125 C 6.519531 -3.34375 6.703125 -4.28125 6.703125 -5.625 L 6.703125 -45.375 C 6.703125 -46.71875 6.515625 -47.664062 6.140625 -48.21875 C 5.773438 -48.78125 5.128906 -49.222656 4.203125 -49.546875 L 4.203125 -51.046875 L 15.203125 -51.046875 L 15.203125 -49.546875 C 14.304688 -49.242188 13.679688 -48.847656 13.328125 -48.359375 C 12.984375 -47.878906 12.8125 -47.09375 12.8125 -46 Z M 12.8125 -5.625 "/></g></g></g><g fill="#f8cf40" fill-opacity="1"><g transform="translate(80.384337, 85.806288)"><g><path d="M 49.0625 -11.875 L 49.0625 -45.375 C 49.0625 -46.71875 48.878906 -47.664062 48.515625 -48.21875 C 48.160156 -48.78125 47.507812 -49.222656 46.5625 -49.546875 L 46.5625 -51.046875 L 56.3125 -51.046875 L 56.3125 -49.546875 C 55.363281 -49.222656 54.707031 -48.796875 54.34375 -48.265625 C 53.988281 -47.734375 53.8125 -46.769531 53.8125 -45.375 L 53.8125 0 L 52.1875 0 L 11.3125 -43.234375 L 11.3125 -5.625 C 11.3125 -4.238281 11.476562 -3.285156 11.8125 -2.765625 C 12.15625 -2.242188 12.789062 -1.820312 13.71875 -1.5 L 13.71875 0 L 4.0625 0 L 4.0625 -1.5 C 4.988281 -1.820312 5.617188 -2.242188 5.953125 -2.765625 C 6.285156 -3.285156 6.453125 -4.238281 6.453125 -5.625 L 6.453125 -46.359375 C 6.453125 -47.117188 6.269531 -47.722656 5.90625 -48.171875 C 5.550781 -48.628906 4.867188 -49.085938 3.859375 -49.546875 L 3.859375 -51.046875 L 12.078125 -51.046875 Z M 49.0625 -11.875 "/></g></g></g><g fill="#f8cf40" fill-opacity="1"><g transform="translate(145.664457, 85.806288)"><g><path d="M 41.109375 -21.109375 C 41.109375 -22.523438 40.929688 -23.5 40.578125 -24.03125 C 40.234375 -24.5625 39.597656 -24.988281 38.671875 -25.3125 L 38.671875 -26.734375 L 49.40625 -26.734375 L 49.40625 -25.3125 C 48.476562 -24.988281 47.832031 -24.5625 47.46875 -24.03125 C 47.113281 -23.5 46.9375 -22.523438 46.9375 -21.109375 L 46.9375 -5.03125 L 46.796875 -5.03125 C 45.785156 -5.03125 44.269531 -4.441406 42.25 -3.265625 C 41.789062 -2.984375 41.429688 -2.773438 41.171875 -2.640625 C 39.003906 -1.410156 36.910156 -0.519531 34.890625 0.03125 C 32.878906 0.59375 30.75 0.875 28.5 0.875 C 21.050781 0.875 14.898438 -1.550781 10.046875 -6.40625 C 5.203125 -11.257812 2.78125 -17.398438 2.78125 -24.828125 C 2.78125 -32.804688 5.15625 -39.300781 9.90625 -44.3125 C 14.664062 -49.332031 20.820312 -51.84375 28.375 -51.84375 C 31.65625 -51.84375 35.171875 -51.179688 38.921875 -49.859375 C 40.035156 -49.460938 40.742188 -49.265625 41.046875 -49.265625 C 41.484375 -49.265625 41.804688 -49.320312 42.015625 -49.4375 C 42.222656 -49.550781 42.375 -49.757812 42.46875 -50.0625 L 43.8125 -49.921875 L 45.59375 -39.828125 L 44.09375 -39.40625 C 42.195312 -42.1875 39.9375 -44.238281 37.3125 -45.5625 C 34.6875 -46.894531 31.585938 -47.5625 28.015625 -47.5625 C 22.140625 -47.5625 17.4375 -45.703125 13.90625 -41.984375 C 10.375 -38.273438 8.609375 -33.332031 8.609375 -27.15625 C 8.609375 -23.800781 9.175781 -20.675781 10.3125 -17.78125 C 11.445312 -14.882812 13.101562 -12.328125 15.28125 -10.109375 C 17.21875 -8.140625 19.457031 -6.601562 22 -5.5 C 24.550781 -4.40625 27.125 -3.859375 29.71875 -3.859375 C 31.914062 -3.859375 34.003906 -4.234375 35.984375 -4.984375 C 37.960938 -5.734375 39.671875 -6.800781 41.109375 -8.1875 Z M 41.109375 -21.109375 "/></g></g></g><g fill="#f8cf40" fill-opacity="1"><g transform="translate(203.377233, 85.806288)"><g><path d="M 7.21875 0 L 5.765625 -0.140625 L 3.125 -10.375 L 4.75 -10.875 C 6.28125 -8.457031 8.066406 -6.671875 10.109375 -5.515625 C 12.160156 -4.359375 14.554688 -3.78125 17.296875 -3.78125 C 20.367188 -3.78125 22.789062 -4.582031 24.5625 -6.1875 C 26.332031 -7.800781 27.21875 -10.007812 27.21875 -12.8125 C 27.21875 -14.914062 26.613281 -16.75 25.40625 -18.3125 C 24.207031 -19.875 21.46875 -21.953125 17.1875 -24.546875 L 16.9375 -24.6875 C 8.3125 -29.894531 4 -34.941406 4 -39.828125 C 4 -43.390625 5.15625 -46.289062 7.46875 -48.53125 C 9.78125 -50.78125 12.765625 -51.90625 16.421875 -51.90625 C 19.453125 -51.90625 22.539062 -51.082031 25.6875 -49.4375 C 26.59375 -48.957031 27.1875 -48.71875 27.46875 -48.71875 C 27.882812 -48.71875 28.195312 -48.800781 28.40625 -48.96875 C 28.613281 -49.144531 28.765625 -49.429688 28.859375 -49.828125 L 30.28125 -49.796875 L 31 -38.40625 L 29.375 -38.1875 C 28.257812 -41.039062 26.625 -43.289062 24.46875 -44.9375 C 22.320312 -46.59375 19.976562 -47.421875 17.4375 -47.421875 C 15.144531 -47.421875 13.335938 -46.84375 12.015625 -45.6875 C 10.691406 -44.53125 10.03125 -42.957031 10.03125 -40.96875 C 10.03125 -39.257812 10.566406 -37.710938 11.640625 -36.328125 C 12.722656 -34.953125 14.882812 -33.25 18.125 -31.21875 L 19.484375 -30.375 C 28.742188 -24.613281 33.375 -18.96875 33.375 -13.4375 C 33.375 -9.226562 31.984375 -5.800781 29.203125 -3.15625 C 26.421875 -0.519531 22.796875 0.796875 18.328125 0.796875 C 16.691406 0.796875 14.789062 0.519531 12.625 -0.03125 C 10.457031 -0.59375 9.070312 -0.875 8.46875 -0.875 C 8.050781 -0.875 7.773438 -0.8125 7.640625 -0.6875 C 7.503906 -0.570312 7.363281 -0.34375 7.21875 0 Z M 7.21875 0 "/></g></g></g><g fill="#ffffff" fill-opacity="1"><g transform="translate(264.324464, 70.299813)"><g><path d="M 19.046875 -12.390625 C 20.628906 -12.046875 21.847656 -11.363281 22.703125 -10.34375 C 23.566406 -9.332031 24 -8.023438 24 -6.421875 C 24 -4.359375 23.238281 -2.769531 21.71875 -1.65625 C 20.195312 -0.550781 17.945312 0 14.96875 0 L 3.90625 0 L 3.90625 -24.03125 L 14.28125 -24.03125 C 16.957031 -24.03125 19.03125 -23.488281 20.5 -22.40625 C 21.976562 -21.332031 22.71875 -19.8125 22.71875 -17.84375 C 22.71875 -16.519531 22.390625 -15.394531 21.734375 -14.46875 C 21.085938 -13.539062 20.191406 -12.847656 19.046875 -12.390625 Z M 6.453125 -21.9375 L 6.453125 -13.21875 L 14.109375 -13.21875 C 16.054688 -13.21875 17.554688 -13.585938 18.609375 -14.328125 C 19.660156 -15.078125 20.1875 -16.160156 20.1875 -17.578125 C 20.1875 -18.992188 19.660156 -20.070312 18.609375 -20.8125 C 17.554688 -21.5625 16.054688 -21.9375 14.109375 -21.9375 Z M 14.9375 -2.09375 C 17.082031 -2.09375 18.703125 -2.457031 19.796875 -3.1875 C 20.898438 -3.925781 21.453125 -5.070312 21.453125 -6.625 C 21.453125 -9.625 19.28125 -11.125 14.9375 -11.125 L 6.453125 -11.125 L 6.453125 -2.09375 Z M 14.9375 -2.09375 "/></g></g></g><g fill="#ffffff" fill-opacity="1"><g transform="translate(301.163456, 70.299813)"><g><path d="M 18.984375 -6.421875 L 5.59375 -6.421875 L 2.71875 0 L 0.0625 0 L 11.046875 -24.03125 L 13.5625 -24.03125 L 24.546875 0 L 21.859375 0 Z M 18.0625 -8.484375 L 12.296875 -21.390625 L 6.515625 -8.484375 Z M 18.0625 -8.484375 "/></g></g></g><g fill="#ffffff" fill-opacity="1"><g transform="translate(336.732128, 70.299813)"><g><path d="M 20.328125 0 L 14.828125 -7.71875 C 14.210938 -7.65625 13.570312 -7.625 12.90625 -7.625 L 6.453125 -7.625 L 6.453125 0 L 3.90625 0 L 3.90625 -24.03125 L 12.90625 -24.03125 C 15.96875 -24.03125 18.367188 -23.296875 20.109375 -21.828125 C 21.847656 -20.367188 22.71875 -18.359375 22.71875 -15.796875 C 22.71875 -13.910156 22.242188 -12.320312 21.296875 -11.03125 C 20.347656 -9.738281 18.992188 -8.804688 17.234375 -8.234375 L 23.109375 0 Z M 12.84375 -9.78125 C 15.21875 -9.78125 17.035156 -10.304688 18.296875 -11.359375 C 19.554688 -12.410156 20.1875 -13.890625 20.1875 -15.796875 C 20.1875 -17.734375 19.554688 -19.222656 18.296875 -20.265625 C 17.035156 -21.304688 15.21875 -21.828125 12.84375 -21.828125 L 6.453125 -21.828125 L 6.453125 -9.78125 Z M 12.84375 -9.78125 "/></g></g></g><g fill="#ffffff" fill-opacity="1"><g transform="translate(372.506815, 70.299813)"><g><path d="M 19.046875 -12.390625 C 20.628906 -12.046875 21.847656 -11.363281 22.703125 -10.34375 C 23.566406 -9.332031 24 -8.023438 24 -6.421875 C 24 -4.359375 23.238281 -2.769531 21.71875 -1.65625 C 20.195312 -0.550781 17.945312 0 14.96875 0 L 3.90625 0 L 3.90625 -24.03125 L 14.28125 -24.03125 C 16.957031 -24.03125 19.03125 -23.488281 20.5 -22.40625 C 21.976562 -21.332031 22.71875 -19.8125 22.71875 -17.84375 C 22.71875 -16.519531 22.390625 -15.394531 21.734375 -14.46875 C 21.085938 -13.539062 20.191406 -12.847656 19.046875 -12.390625 Z M 6.453125 -21.9375 L 6.453125 -13.21875 L 14.109375 -13.21875 C 16.054688 -13.21875 17.554688 -13.585938 18.609375 -14.328125 C 19.660156 -15.078125 20.1875 -16.160156 20.1875 -17.578125 C 20.1875 -18.992188 19.660156 -20.070312 18.609375 -20.8125 C 17.554688 -21.5625 16.054688 -21.9375 14.109375 -21.9375 Z M 14.9375 -2.09375 C 17.082031 -2.09375 18.703125 -2.457031 19.796875 -3.1875 C 20.898438 -3.925781 21.453125 -5.070312 21.453125 -6.625 C 21.453125 -9.625 19.28125 -11.125 14.9375 -11.125 L 6.453125 -11.125 L 6.453125 -2.09375 Z M 14.9375 -2.09375 "/></g></g></g><g fill="#ffffff" fill-opacity="1"><g transform="translate(409.345807, 70.299813)"><g><path d="M 20.90625 -2.203125 L 20.90625 0 L 3.90625 0 L 3.90625 -24.03125 L 20.390625 -24.03125 L 20.390625 -21.828125 L 6.453125 -21.828125 L 6.453125 -13.28125 L 18.875 -13.28125 L 18.875 -11.125 L 6.453125 -11.125 L 6.453125 -2.203125 Z M 20.90625 -2.203125 "/></g></g></g><g fill="#ffffff" fill-opacity="1"><g transform="translate(443.26653, 70.299813)"><g><path d="M 20.328125 0 L 14.828125 -7.71875 C 14.210938 -7.65625 13.570312 -7.625 12.90625 -7.625 L 6.453125 -7.625 L 6.453125 0 L 3.90625 0 L 3.90625 -24.03125 L 12.90625 -24.03125 C 15.96875 -24.03125 18.367188 -23.296875 20.109375 -21.828125 C 21.847656 -20.367188 22.71875 -18.359375 22.71875 -15.796875 C 22.71875 -13.910156 22.242188 -12.320312 21.296875 -11.03125 C 20.347656 -9.738281 18.992188 -8.804688 17.234375 -8.234375 L 23.109375 0 Z M 12.84375 -9.78125 C 15.21875 -9.78125 17.035156 -10.304688 18.296875 -11.359375 C 19.554688 -12.410156 20.1875 -13.890625 20.1875 -15.796875 C 20.1875 -17.734375 19.554688 -19.222656 18.296875 -20.265625 C 17.035156 -21.304688 15.21875 -21.828125 12.84375 -21.828125 L 6.453125 -21.828125 L 6.453125 -9.78125 Z M 12.84375 -9.78125 "/></g></g></g><g fill="#ffffff" fill-opacity="1"><g transform="translate(479.041222, 70.299813)"><g/></g></g><g fill="#ffffff" fill-opacity="1"><g transform="translate(498.988527, 70.299813)"><g><path d="M 14.34375 0.203125 C 11.96875 0.203125 9.820312 -0.320312 7.90625 -1.375 C 6 -2.425781 4.5 -3.882812 3.40625 -5.75 C 2.320312 -7.613281 1.78125 -9.703125 1.78125 -12.015625 C 1.78125 -14.328125 2.320312 -16.414062 3.40625 -18.28125 C 4.5 -20.144531 6.003906 -21.601562 7.921875 -22.65625 C 9.847656 -23.707031 12.003906 -24.234375 14.390625 -24.234375 C 16.171875 -24.234375 17.816406 -23.9375 19.328125 -23.34375 C 20.835938 -22.75 22.117188 -21.878906 23.171875 -20.734375 L 21.5625 -19.125 C 19.6875 -21.019531 17.316406 -21.96875 14.453125 -21.96875 C 12.554688 -21.96875 10.828125 -21.53125 9.265625 -20.65625 C 7.710938 -19.789062 6.492188 -18.601562 5.609375 -17.09375 C 4.734375 -15.582031 4.296875 -13.890625 4.296875 -12.015625 C 4.296875 -10.140625 4.734375 -8.445312 5.609375 -6.9375 C 6.492188 -5.425781 7.710938 -4.234375 9.265625 -3.359375 C 10.828125 -2.492188 12.554688 -2.0625 14.453125 -2.0625 C 17.335938 -2.0625 19.707031 -3.019531 21.5625 -4.9375 L 23.171875 -3.328125 C 22.117188 -2.179688 20.832031 -1.304688 19.3125 -0.703125 C 17.789062 -0.0976562 16.132812 0.203125 14.34375 0.203125 Z M 14.34375 0.203125 "/></g></g></g><g fill="#ffffff" fill-opacity="1"><g transform="translate(534.625886, 70.299813)"><g><path d="M 14.421875 0.203125 C 12.035156 0.203125 9.875 -0.328125 7.9375 -1.390625 C 6.007812 -2.453125 4.5 -3.910156 3.40625 -5.765625 C 2.320312 -7.617188 1.78125 -9.703125 1.78125 -12.015625 C 1.78125 -14.328125 2.320312 -16.410156 3.40625 -18.265625 C 4.5 -20.117188 6.007812 -21.578125 7.9375 -22.640625 C 9.875 -23.703125 12.035156 -24.234375 14.421875 -24.234375 C 16.796875 -24.234375 18.9375 -23.707031 20.84375 -22.65625 C 22.757812 -21.601562 24.265625 -20.144531 25.359375 -18.28125 C 26.460938 -16.414062 27.015625 -14.328125 27.015625 -12.015625 C 27.015625 -9.703125 26.460938 -7.613281 25.359375 -5.75 C 24.265625 -3.882812 22.757812 -2.425781 20.84375 -1.375 C 18.9375 -0.320312 16.796875 0.203125 14.421875 0.203125 Z M 14.421875 -2.0625 C 16.316406 -2.0625 18.03125 -2.488281 19.5625 -3.34375 C 21.09375 -4.207031 22.289062 -5.398438 23.15625 -6.921875 C 24.03125 -8.441406 24.46875 -10.140625 24.46875 -12.015625 C 24.46875 -13.890625 24.03125 -15.585938 23.15625 -17.109375 C 22.289062 -18.628906 21.09375 -19.816406 19.5625 -20.671875 C 18.03125 -21.535156 16.316406 -21.96875 14.421875 -21.96875 C 12.515625 -21.96875 10.789062 -21.535156 9.25 -20.671875 C 7.707031 -19.816406 6.492188 -18.628906 5.609375 -17.109375 C 4.734375 -15.585938 4.296875 -13.890625 4.296875 -12.015625 C 4.296875 -10.140625 4.734375 -8.441406 5.609375 -6.921875 C 6.492188 -5.398438 7.707031 -4.207031 9.25 -3.34375 C 10.789062 -2.488281 12.515625 -2.0625 14.421875 -2.0625 Z M 14.421875 -2.0625 "/></g></g></g><g fill="#ffffff" fill-opacity="1"><g transform="translate(574.38316, 70.299813)"><g><path d="M 3.90625 -24.03125 L 6.453125 -24.03125 L 6.453125 -2.203125 L 19.90625 -2.203125 L 19.90625 0 L 3.90625 0 Z M 3.90625 -24.03125 "/></g></g></g><g fill="#ffffff" fill-opacity="1"><g transform="translate(605.557254, 70.299813)"><g><path d="M 3.90625 -24.03125 L 6.453125 -24.03125 L 6.453125 -2.203125 L 19.90625 -2.203125 L 19.90625 0 L 3.90625 0 Z M 3.90625 -24.03125 "/></g></g></g><g fill="#ffffff" fill-opacity="1"><g transform="translate(636.731347, 70.299813)"><g><path d="M 20.90625 -2.203125 L 20.90625 0 L 3.90625 0 L 3.90625 -24.03125 L 20.390625 -24.03125 L 20.390625 -21.828125 L 6.453125 -21.828125 L 6.453125 -13.28125 L 18.875 -13.28125 L 18.875 -11.125 L 6.453125 -11.125 L 6.453125 -2.203125 Z M 20.90625 -2.203125 "/></g></g></g><g fill="#ffffff" fill-opacity="1"><g transform="translate(670.65207, 70.299813)"><g><path d="M 20.84375 -12.015625 L 23.28125 -12.015625 L 23.28125 -2.84375 C 22.15625 -1.863281 20.828125 -1.109375 19.296875 -0.578125 C 17.765625 -0.0546875 16.148438 0.203125 14.453125 0.203125 C 12.046875 0.203125 9.878906 -0.320312 7.953125 -1.375 C 6.035156 -2.425781 4.523438 -3.882812 3.421875 -5.75 C 2.328125 -7.613281 1.78125 -9.703125 1.78125 -12.015625 C 1.78125 -14.328125 2.328125 -16.414062 3.421875 -18.28125 C 4.523438 -20.144531 6.035156 -21.601562 7.953125 -22.65625 C 9.878906 -23.707031 12.054688 -24.234375 14.484375 -24.234375 C 16.316406 -24.234375 18 -23.941406 19.53125 -23.359375 C 21.0625 -22.773438 22.351562 -21.910156 23.40625 -20.765625 L 21.828125 -19.15625 C 19.929688 -21.03125 17.519531 -21.96875 14.59375 -21.96875 C 12.644531 -21.96875 10.882812 -21.535156 9.3125 -20.671875 C 7.75 -19.816406 6.519531 -18.628906 5.625 -17.109375 C 4.738281 -15.585938 4.296875 -13.890625 4.296875 -12.015625 C 4.296875 -10.140625 4.738281 -8.445312 5.625 -6.9375 C 6.519531 -5.425781 7.742188 -4.234375 9.296875 -3.359375 C 10.859375 -2.492188 12.613281 -2.0625 14.5625 -2.0625 C 17.03125 -2.0625 19.125 -2.675781 20.84375 -3.90625 Z M 20.84375 -12.015625 "/></g></g></g><g fill="#ffffff" fill-opacity="1"><g transform="translate(708.143398, 70.299813)"><g><path d="M 20.90625 -2.203125 L 20.90625 0 L 3.90625 0 L 3.90625 -24.03125 L 20.390625 -24.03125 L 20.390625 -21.828125 L 6.453125 -21.828125 L 6.453125 -13.28125 L 18.875 -13.28125 L 18.875 -11.125 L 6.453125 -11.125 L 6.453125 -2.203125 Z M 20.90625 -2.203125 "/></g></g></g><g clip-path="url(#909dab4057)"><path stroke-linecap="butt" transform="matrix(0.75, 0, 0, 0.75, 259.017295, 33.523176)" fill="none" stroke-linejoin="miter" d="M -0.00222728 0.000348101 L 638.591557 0.000348101 L 638.591557 73.297227 L -0.00222728 73.297227 Z M -0.00222728 0.000348101 " stroke="#ffffff" stroke-width="10" stroke-opacity="1" stroke-miterlimit="4"/></g></svg>